<svg xmlns="http://www.w3.org/2000/svg" width="322" height="142" viewBox="0 0 322 142" fill="none">
<path d="M60 72.5C59.1716 72.5 58.5 73.1716 58.5 74C58.5 74.8284 59.1716 75.5 60 75.5V72.5ZM263.061 75.0607C263.646 74.4749 263.646 73.5251 263.061 72.9393L253.515 63.3934C252.929 62.8076 251.979 62.8076 251.393 63.3934C250.808 63.9792 250.808 64.9289 251.393 65.5147L259.879 74L251.393 82.4853C250.808 83.0711 250.808 84.0208 251.393 84.6066C251.979 85.1924 252.929 85.1924 253.515 84.6066L263.061 75.0607ZM60 75.5L262 75.5V72.5L60 72.5V75.5Z" fill="#5B6776"/>
<circle cx="161" cy="71" r="71" fill="#FDE4D8"/>
<circle cx="161.383" cy="71.3832" r="60.3832" fill="#FBA989"/>
<circle cx="161.103" cy="71.1028" r="49.1028" fill="#F76329"/>
</svg>