<svg width="110" height="16" viewBox="0 0 110 16" fill="none" xmlns="http://www.w3.org/2000/svg">
<path d="M6.15953 15.2957C4.9462 15.2957 3.87953 15.029 2.95953 14.4957C2.05286 13.9624 1.3462 13.189 0.839531 12.1757C0.332865 11.1624 0.0795313 9.94237 0.0795313 8.5157C0.0795313 7.10237 0.346198 5.88904 0.879531 4.8757C1.41286 3.84904 2.1662 3.06237 3.13953 2.5157C4.1262 1.96904 5.2662 1.6957 6.55953 1.6957C7.9862 1.6957 9.13953 1.96237 10.0195 2.4957C10.8995 3.0157 11.5995 3.82904 12.1195 4.9357L9.55953 6.0357C9.3462 5.32904 8.97953 4.80904 8.45953 4.4757C7.95287 4.12904 7.3262 3.9557 6.57953 3.9557C5.83287 3.9557 5.1862 4.1357 4.63953 4.4957C4.09286 4.84237 3.67286 5.3557 3.37953 6.0357C3.0862 6.70237 2.93953 7.52237 2.93953 8.4957C2.93953 9.4957 3.07953 10.3424 3.35953 11.0357C3.63953 11.7157 4.05286 12.229 4.59953 12.5757C5.15953 12.909 5.8462 13.0757 6.65953 13.0757C7.09953 13.0757 7.5062 13.0224 7.87953 12.9157C8.2662 12.809 8.59953 12.649 8.87953 12.4357C9.15953 12.2224 9.37953 11.949 9.53953 11.6157C9.69953 11.2824 9.77953 10.8957 9.77953 10.4557V10.1557H6.31953V8.1357L12.1595 8.1357V15.0957H10.2195L10.0195 12.2157L10.4995 12.5557C10.2062 13.4357 9.6862 14.1157 8.93953 14.5957C8.2062 15.0624 7.27953 15.2957 6.15953 15.2957ZM19.5527 15.2957C18.4993 15.2957 17.5793 15.089 16.7927 14.6757C16.0193 14.2624 15.4193 13.669 14.9927 12.8957C14.566 12.1224 14.3527 11.189 14.3527 10.0957C14.3527 9.00237 14.566 8.06904 14.9927 7.2957C15.4193 6.52237 16.0127 5.92904 16.7727 5.5157C17.546 5.10237 18.426 4.8957 19.4127 4.8957C20.426 4.8957 21.286 5.10237 21.9927 5.5157C22.6993 5.9157 23.2393 6.46904 23.6127 7.1757C23.986 7.86904 24.1727 8.66237 24.1727 9.5557C24.1727 9.82237 24.166 10.0757 24.1527 10.3157C24.1393 10.5557 24.1193 10.769 24.0927 10.9557H16.1127V9.0557H22.8927L21.5727 9.5357C21.5727 8.6957 21.3793 8.04904 20.9927 7.5957C20.6193 7.14237 20.086 6.9157 19.3927 6.9157C18.886 6.9157 18.446 7.0357 18.0727 7.2757C17.7127 7.5157 17.4393 7.8757 17.2527 8.3557C17.066 8.82237 16.9727 9.4157 16.9727 10.1357C16.9727 10.8424 17.0727 11.429 17.2727 11.8957C17.486 12.349 17.7793 12.689 18.1527 12.9157C18.5393 13.1424 18.9993 13.2557 19.5327 13.2557C20.1193 13.2557 20.5927 13.1424 20.9527 12.9157C21.3127 12.689 21.5927 12.3757 21.7927 11.9757L23.9727 12.8157C23.7593 13.3357 23.4327 13.7824 22.9927 14.1557C22.566 14.529 22.0527 14.8157 21.4527 15.0157C20.866 15.2024 20.2327 15.2957 19.5527 15.2957ZM29.8589 2.0357L29.8589 11.8357C29.8589 12.3157 29.9789 12.669 30.2189 12.8957C30.4722 13.109 30.8122 13.2157 31.2389 13.2157C31.5722 13.2157 31.8656 13.169 32.1189 13.0757C32.3722 12.969 32.5989 12.829 32.7989 12.6557L33.2389 14.4757C32.9189 14.729 32.5189 14.929 32.0389 15.0757C31.5589 15.2224 31.0522 15.2957 30.5189 15.2957C29.8522 15.2957 29.2589 15.1957 28.7389 14.9957C28.2322 14.7957 27.8322 14.4757 27.5389 14.0357C27.2589 13.5957 27.1189 13.009 27.1189 12.2757V2.7957L29.8589 2.0357ZM33.0589 5.0957V7.1357L25.2789 7.1357V5.0957L33.0589 5.0957ZM45.0259 15.2957C44.0126 15.2957 43.0859 15.1157 42.2459 14.7557C41.4193 14.3957 40.7459 13.889 40.2259 13.2357L41.8059 11.6357C42.1259 12.1157 42.5526 12.509 43.0859 12.8157C43.6193 13.1224 44.2526 13.2757 44.9859 13.2757C45.5059 13.2757 45.9193 13.2024 46.2259 13.0557C46.5459 12.8957 46.7059 12.649 46.7059 12.3157C46.7059 12.1024 46.6326 11.9224 46.4859 11.7757C46.3393 11.6157 46.0459 11.489 45.6059 11.3957L43.8459 11.0357C42.6859 10.7957 41.8593 10.4357 41.3659 9.9557C40.8859 9.46237 40.6459 8.82904 40.6459 8.0557C40.6459 7.50904 40.8059 6.9957 41.1259 6.5157C41.4593 6.0357 41.9526 5.64904 42.6059 5.3557C43.2593 5.04904 44.0726 4.8957 45.0459 4.8957C46.0459 4.8957 46.9126 5.0557 47.6459 5.3757C48.3926 5.68237 48.9793 6.14237 49.4059 6.7557L47.7659 8.3557C47.4726 7.88904 47.0859 7.5357 46.6059 7.2957C46.1393 7.04237 45.6459 6.9157 45.1259 6.9157C44.7526 6.9157 44.4326 6.9557 44.1659 7.0357C43.8993 7.1157 43.6993 7.22904 43.5659 7.3757C43.4326 7.50904 43.3659 7.68237 43.3659 7.8957C43.3659 8.10904 43.4593 8.2957 43.6459 8.4557C43.8326 8.60237 44.1726 8.72904 44.6659 8.8357L46.7059 9.2557C47.6926 9.4557 48.3993 9.7957 48.8259 10.2757C49.2526 10.7424 49.4659 11.309 49.4659 11.9757C49.4659 12.6157 49.2926 13.189 48.9459 13.6957C48.6126 14.189 48.1126 14.5824 47.4459 14.8757C46.7926 15.1557 45.9859 15.2957 45.0259 15.2957ZM55.1909 2.0357V11.8357C55.1909 12.3157 55.3109 12.669 55.5509 12.8957C55.8043 13.109 56.1443 13.2157 56.5709 13.2157C56.9043 13.2157 57.1976 13.169 57.4509 13.0757C57.7043 12.969 57.9309 12.829 58.1309 12.6557L58.5709 14.4757C58.2509 14.729 57.8509 14.929 57.3709 15.0757C56.8909 15.2224 56.3843 15.2957 55.8509 15.2957C55.1843 15.2957 54.5909 15.1957 54.0709 14.9957C53.5643 14.7957 53.1643 14.4757 52.8709 14.0357C52.5909 13.5957 52.4509 13.009 52.4509 12.2757V2.7957L55.1909 2.0357ZM58.3909 5.0957V7.1357L50.6109 7.1357V5.0957H58.3909ZM66.0423 8.7157C66.0423 8.14237 65.8757 7.6957 65.5423 7.3757C65.2223 7.0557 64.7957 6.8957 64.2623 6.8957C63.769 6.8957 63.3357 7.02237 62.9623 7.2757C62.589 7.52904 62.3157 7.94904 62.1423 8.5357L59.8023 7.8157C60.029 6.9357 60.5223 6.22904 61.2823 5.6957C62.0557 5.16237 63.089 4.8957 64.3823 4.8957C65.2623 4.8957 66.029 5.0357 66.6823 5.3157C67.3357 5.58237 67.8423 5.98904 68.2023 6.5357C68.5757 7.08237 68.7623 7.76904 68.7623 8.5957V12.6557C68.7623 13.1624 69.0023 13.4157 69.4823 13.4157C69.709 13.4157 69.9223 13.3824 70.1223 13.3157L69.9623 15.0157C69.6157 15.189 69.1823 15.2757 68.6623 15.2757C68.1957 15.2757 67.7757 15.1957 67.4023 15.0357C67.029 14.8757 66.7357 14.6357 66.5223 14.3157C66.309 13.9824 66.2023 13.569 66.2023 13.0757V12.9957L66.6823 12.9157C66.6023 13.4224 66.3823 13.8557 66.0223 14.2157C65.6623 14.5624 65.2223 14.829 64.7023 15.0157C64.1957 15.2024 63.669 15.2957 63.1223 15.2957C62.4423 15.2957 61.8557 15.1957 61.3623 14.9957C60.869 14.7824 60.489 14.4757 60.2223 14.0757C59.9557 13.6757 59.8223 13.1824 59.8223 12.5957C59.8223 11.849 60.0623 11.2424 60.5423 10.7757C61.0223 10.2957 61.709 9.96904 62.6023 9.7957L66.3623 9.0357L66.3423 10.7357L63.9423 11.2157C63.489 11.309 63.1423 11.4357 62.9023 11.5957C62.6757 11.7424 62.5623 11.989 62.5623 12.3357C62.5623 12.669 62.6823 12.9224 62.9223 13.0957C63.1757 13.269 63.4757 13.3557 63.8223 13.3557C64.1023 13.3557 64.3757 13.3224 64.6423 13.2557C64.909 13.189 65.149 13.0824 65.3623 12.9357C65.5757 12.789 65.7423 12.589 65.8623 12.3357C65.9823 12.0824 66.0423 11.7757 66.0423 11.4157V8.7157ZM71.8267 15.0957V5.0957H74.2067L74.3867 7.0557C74.6534 6.36237 75.0401 5.82904 75.5467 5.4557C76.0667 5.08237 76.7134 4.8957 77.4867 4.8957C77.7134 4.8957 77.9201 4.9157 78.1067 4.9557C78.2934 4.9957 78.4467 5.04904 78.5667 5.1157L78.2467 7.4157C78.1134 7.36237 77.9467 7.32237 77.7467 7.2957C77.5601 7.26904 77.3134 7.2557 77.0067 7.2557C76.6067 7.2557 76.2201 7.3557 75.8467 7.5557C75.4734 7.74237 75.1667 8.0357 74.9267 8.4357C74.6867 8.82237 74.5667 9.3157 74.5667 9.9157V15.0957H71.8267ZM83.4331 2.0357V11.8357C83.4331 12.3157 83.5531 12.669 83.7931 12.8957C84.0465 13.109 84.3865 13.2157 84.8131 13.2157C85.1465 13.2157 85.4398 13.169 85.6931 13.0757C85.9465 12.969 86.1731 12.829 86.3731 12.6557L86.8131 14.4757C86.4931 14.729 86.0931 14.929 85.6131 15.0757C85.1331 15.2224 84.6265 15.2957 84.0931 15.2957C83.4265 15.2957 82.8331 15.1957 82.3131 14.9957C81.8065 14.7957 81.4065 14.4757 81.1131 14.0357C80.8331 13.5957 80.6931 13.009 80.6931 12.2757V2.7957L83.4331 2.0357ZM86.6331 5.0957V7.1357H78.8531V5.0957L86.6331 5.0957ZM93.1269 15.2957C92.0735 15.2957 91.1535 15.089 90.3669 14.6757C89.5935 14.2624 88.9935 13.669 88.5669 12.8957C88.1402 12.1224 87.9269 11.189 87.9269 10.0957C87.9269 9.00237 88.1402 8.06904 88.5669 7.2957C88.9935 6.52237 89.5869 5.92904 90.3469 5.5157C91.1202 5.10237 92.0002 4.8957 92.9869 4.8957C94.0002 4.8957 94.8602 5.10237 95.5669 5.5157C96.2735 5.9157 96.8135 6.46904 97.1869 7.1757C97.5602 7.86904 97.7469 8.66237 97.7469 9.5557C97.7469 9.82237 97.7402 10.0757 97.7269 10.3157C97.7135 10.5557 97.6935 10.769 97.6669 10.9557H89.6869V9.0557H96.4669L95.1469 9.5357C95.1469 8.6957 94.9535 8.04904 94.5669 7.5957C94.1935 7.14237 93.6602 6.9157 92.9669 6.9157C92.4602 6.9157 92.0202 7.0357 91.6469 7.2757C91.2869 7.5157 91.0135 7.8757 90.8269 8.3557C90.6402 8.82237 90.5469 9.4157 90.5469 10.1357C90.5469 10.8424 90.6469 11.429 90.8469 11.8957C91.0602 12.349 91.3535 12.689 91.7269 12.9157C92.1135 13.1424 92.5735 13.2557 93.1069 13.2557C93.6935 13.2557 94.1669 13.1424 94.5269 12.9157C94.8869 12.689 95.1669 12.3757 95.3669 11.9757L97.5469 12.8157C97.3335 13.3357 97.0069 13.7824 96.5669 14.1557C96.1402 14.529 95.6269 14.8157 95.0269 15.0157C94.4402 15.2024 93.8069 15.2957 93.1269 15.2957ZM103.849 15.2957C103.022 15.2957 102.282 15.089 101.629 14.6757C100.989 14.2624 100.482 13.669 100.109 12.8957C99.7489 12.1224 99.5689 11.1957 99.5689 10.1157C99.5689 9.00904 99.7622 8.06904 100.149 7.2957C100.536 6.50904 101.056 5.9157 101.709 5.5157C102.376 5.10237 103.122 4.8957 103.949 4.8957C104.829 4.8957 105.556 5.14904 106.129 5.6557C106.702 6.16237 107.076 6.8157 107.249 7.6157L106.989 7.9357V0.715702H109.729V15.0957H107.269L107.089 12.0557L107.429 12.2157C107.336 12.8424 107.122 13.389 106.789 13.8557C106.456 14.309 106.036 14.6624 105.529 14.9157C105.022 15.169 104.462 15.2957 103.849 15.2957ZM104.649 13.1957C105.129 13.1957 105.542 13.0757 105.889 12.8357C106.236 12.5824 106.502 12.2157 106.689 11.7357C106.889 11.2557 106.989 10.6824 106.989 10.0157C106.989 9.3757 106.896 8.8357 106.709 8.3957C106.522 7.94237 106.256 7.5957 105.909 7.3557C105.562 7.1157 105.156 6.9957 104.689 6.9957C103.942 6.9957 103.356 7.26237 102.929 7.7957C102.516 8.3157 102.309 9.08237 102.309 10.0957C102.309 11.109 102.516 11.8824 102.929 12.4157C103.342 12.9357 103.916 13.1957 104.649 13.1957Z" fill="#344649"/>
</svg>
